<?xml version="1.0" encoding="utf-8"?>
<!-- Generator: Adobe Illustrator 26.0.0, SVG Export Plug-In . SVG Version: 6.00 Build 0)  -->
<svg version="1.1" id="Capa_1" xmlns="http://www.w3.org/2000/svg" xmlns:xlink="http://www.w3.org/1999/xlink" x="0px" y="0px"
	 viewBox="0 0 1655.88 429.04" style="enable-background:new 0 0 1655.88 429.04;" xml:space="preserve">
<style type="text/css">
	.st0{fill:#FFFFFF;}
</style>
<g>
	<polygon class="st0" points="107.84,135.61 86.3,135.61 86.3,36.66 14.36,36.66 14.36,313.34 86.3,313.34 86.3,197.13 
		107.84,197.13 107.84,313.34 179.79,313.34 179.79,36.66 107.84,36.66 	"/>
	<path class="st0" d="M358.2,59.9c-7.18-9.68-16.66-16.95-28.45-21.79c-11.79-4.84-25.1-7.26-39.9-7.26
		c-15.61,0-29.28,2.56-41.02,7.69c-11.74,5.13-21.05,12.48-27.94,22.05c-6.89,9.57-11,20.14-12.3,31.7
		c-1.31,11.56-1.97,31.25-1.97,59.05v47.34c0,28.48,0.68,48.42,2.05,59.81c1.37,11.39,5.64,21.93,12.82,31.62
		c7.18,9.69,16.66,16.95,28.45,21.79c11.79,4.84,25.09,7.26,39.9,7.26c15.61,0,29.28-2.56,41.02-7.69
		c11.73-5.13,21.05-12.48,27.94-22.05c6.89-9.57,10.99-20.14,12.3-31.7c1.31-11.56,1.97-31.25,1.97-59.05v-47.34
		c0-28.48-0.68-48.42-2.05-59.81C369.65,80.12,365.38,69.58,358.2,59.9z M301.12,234.9c0,16.29-0.68,26.6-2.05,30.93
		c-1.37,4.33-4.5,6.49-9.4,6.49c-4.79,0-7.83-1.88-9.14-5.64c-1.31-3.76-1.97-13.67-1.97-29.74v-129.2c0-14.24,1-22.81,2.99-25.72
		c1.99-2.91,4.87-4.36,8.63-4.36c4.44,0,7.38,1.79,8.8,5.38c1.42,3.59,2.14,11.82,2.14,24.69V234.9z"/>
	<polygon class="st0" points="500.39,161.24 460.06,36.66 399.9,36.66 399.9,313.34 460.06,313.34 460.06,187.56 497.49,313.34 
		560.55,313.34 560.55,36.66 500.39,36.66 	"/>
	<path class="st0" d="M741.7,57.17c-6.38-7.29-15.7-12.53-27.94-15.72c-12.25-3.19-35.75-4.79-70.5-4.79h-53.83v276.68h90.75
		c17.2,0,30.08-0.94,38.62-2.82c8.54-1.88,15.72-5.18,21.53-9.91c5.81-4.73,9.88-11.28,12.22-19.65c2.33-8.38,3.5-24.98,3.5-49.82
		v-96.9c0-26.2-0.8-43.78-2.39-52.72C752.06,72.58,748.08,64.46,741.7,57.17z M684.11,225.84c0,18.46-1.2,29.77-3.59,33.92
		c-2.39,4.16-8.77,6.24-19.14,6.24V84c7.86,0,13.22,0.83,16.06,2.48c2.85,1.65,4.67,4.25,5.47,7.78c0.8,3.53,1.2,11.56,1.2,24.1
		V225.84z"/>
	<path class="st0" d="M874.49,240.54c0,13.79-0.66,22.53-1.96,26.23c-1.31,3.7-4.25,5.55-8.8,5.55c-3.99,0-6.64-1.68-7.95-5.04
		c-1.31-3.36-1.97-11.08-1.97-23.16V36.66h-71.95v163.72c0,31.22,0.57,51.7,1.71,61.44c1.14,9.74,4.84,19,11.11,27.77
		c6.26,8.77,15.72,15.89,28.37,21.36s27.23,8.2,43.75,8.2c14.92,0,27.88-2.31,38.88-6.92c10.99-4.61,19.85-11.39,26.57-20.34
		c6.72-8.94,10.77-17.66,12.13-26.15c1.37-8.49,2.05-23.21,2.05-44.18V36.66h-71.95V240.54z"/>
	<path class="st0" d="M994.67,36.66l-36.7,276.68h74.38l4.33-49.73h25.74l3.86,49.73h73.53l-41.14-276.68H994.67z M1035.76,214.56
		c1.88-24.49,6.48-63.23,13.81-116.21c3.66,46.14,7.32,84.87,10.96,116.21H1035.76z"/>
	<path class="st0" d="M1304.64,155.6c5.35-7.41,8.03-21.88,8.03-43.41c0-23.58-3.79-40.76-11.37-51.53
		c-7.58-10.77-17.38-17.46-29.39-20.08c-12.02-2.62-35.01-3.93-68.96-3.93h-50.93v276.68h71.95V188.59c9.91,0,16.04,1.77,18.37,5.3
		c2.33,3.53,3.5,12.71,3.5,27.51v91.94h66.82v-72.97c0-22.33-0.6-35.97-1.79-40.93c-1.2-4.96-4.25-10.39-9.14-16.32
		c-4.9-5.92-14.47-10.65-28.71-14.18C1288.74,167.45,1299.28,163.01,1304.64,155.6z M1245.85,120.57c0,12.19-1.62,19.4-4.87,21.62
		c-3.25,2.22-8.92,3.33-17,3.33V84c8.32,0,14.04,1.37,17.17,4.1c3.13,2.73,4.7,8.49,4.7,17.26V120.57z"/>
	<polygon class="st0" points="1328.22,92.03 1370.78,92.03 1370.78,313.34 1442.72,313.34 1442.72,92.03 1485.45,92.03 
		1485.45,36.66 1328.22,36.66 	"/>
	<polygon class="st0" points="1573.8,257.97 1573.8,197.13 1618.75,197.13 1618.75,144.49 1573.8,144.49 1573.8,92.03 
		1621.83,92.03 1621.83,36.66 1501.85,36.66 1501.85,313.34 1626.61,313.34 1626.61,257.97 	"/>
</g>
</svg>
